<?xml version="1.0" standalone="no"?>
<!DOCTYPE svg PUBLIC "-//W3C//DTD SVG 20010904//EN"
 "http://www.w3.org/TR/2001/REC-SVG-20010904/DTD/svg10.dtd">
<svg version="1.0" xmlns="http://www.w3.org/2000/svg"
 width="400.000000pt" height="400.000000pt" viewBox="0 0 400.000000 400.000000"
 preserveAspectRatio="xMidYMid meet">
<metadata>
Created by potrace 1.11, written by Peter Selinger 2001-2013
</metadata>
<g transform="translate(0.000000,400.000000) scale(0.100000,-0.100000)"
fill="#000000" stroke="none">
<path d="M1749 3630 c-246 -50 -434 -234 -532 -520 -86 -251 -94 -475 -25
-689 19 -58 19 -65 4 -73 -31 -17 -46 -64 -46 -145 0 -43 5 -98 11 -123 6 -25
12 -53 14 -63 22 -108 79 -191 159 -234 11 -6 31 -47 52 -108 38 -113 86 -209
156 -315 47 -71 49 -78 44 -128 -10 -105 -88 -191 -195 -213 -240 -49 -507
-159 -699 -287 -99 -65 -228 -189 -266 -255 -60 -102 -69 -139 -72 -314 l-3
-163 1660 0 1661 0 -4 178 c-3 144 -8 185 -23 222 -64 156 -218 304 -440 425
-158 86 -315 145 -533 200 -147 37 -187 56 -219 105 -42 61 -28 139 43 247 56
85 122 214 149 292 13 39 21 71 19 71 -3 0 22 30 56 67 39 43 77 99 103 153
l42 85 0 130 c0 101 -4 138 -18 169 -15 35 -16 44 -2 101 57 249 27 591 -70
792 -58 117 -159 205 -265 228 -36 8 -159 9 -167 1 -2 -2 -22 15 -44 39 -104
113 -342 167 -550 125z"/>
</g>
</svg>
